<?xml version="1.0" standalone="no"?>
<!DOCTYPE svg PUBLIC "-//W3C//DTD SVG 20010904//EN"
 "http://www.w3.org/TR/2001/REC-SVG-20010904/DTD/svg10.dtd">
<svg version="1.0" xmlns="http://www.w3.org/2000/svg"
 width="640.000000pt" height="640.000000pt" viewBox="0 0 640.000000 640.000000"
 preserveAspectRatio="xMidYMid meet">
<metadata>
Created by potrace 1.14, written by Peter Selinger 2001-2017
</metadata>
<g transform="translate(0.000000,640.000000) scale(0.100000,-0.100000)"
fill="#000000" stroke="none">
<path d="M485 6394 c-5 -2 -64 -4 -130 -6 -90 -3 -129 -9 -158 -23 -54 -25
-144 -110 -170 -159 l-22 -41 -3 -1028 -2 -1029 27 -51 c53 -96 148 -171 233
-182 25 -4 416 -8 870 -10 l825 -3 65 47 c143 105 205 143 346 210 180 88 378
147 585 175 103 14 415 15 504 2 71 -11 100 -16 125 -21 14 -3 37 -7 51 -10
51 -9 218 -64 305 -100 153 -63 269 -129 425 -241 l86 -62 824 3 c453 2 844 6
869 10 81 11 163 72 224 167 l36 57 0 1005 c0 682 -3 1021 -11 1055 -8 39 -24
65 -67 115 -66 74 -96 92 -172 101 -30 3 -73 9 -95 12 -38 6 -5550 13 -5570 7z
m241 -718 c25 -8 57 -64 120 -216 61 -147 70 -155 99 -87 10 23 27 61 37 84
10 23 18 44 18 47 0 3 17 40 37 82 47 95 85 119 144 88 37 -19 56 -49 63 -99
4 -22 11 -65 16 -95 5 -30 11 -77 14 -105 11 -103 17 -152 26 -215 9 -63 14
-108 26 -240 3 -36 7 -76 10 -90 2 -14 7 -63 10 -110 5 -74 4 -88 -12 -108
-28 -33 -72 -42 -117 -25 -32 13 -39 22 -52 67 -8 28 -17 74 -20 101 -3 28 -7
61 -9 75 -2 14 -7 50 -10 80 -4 30 -8 69 -11 85 -2 17 -7 52 -10 80 -4 27 -8
51 -10 54 -10 9 -34 -22 -50 -66 -37 -97 -75 -139 -132 -149 -41 -8 -92 55
-133 164 -19 50 -38 86 -41 79 -4 -7 -12 -57 -18 -113 -7 -56 -14 -112 -16
-125 -2 -13 -11 -74 -20 -135 -8 -60 -18 -123 -21 -140 -11 -69 -107 -98 -158
-48 -32 33 -34 46 -21 184 7 76 9 99 20 180 3 25 7 59 9 75 4 29 13 99 20 160
2 17 9 67 16 112 6 46 13 95 15 110 26 203 40 243 90 263 20 8 28 8 71 -4z
m1272 -12 c13 -9 32 -34 42 -57 40 -91 340 -898 349 -940 3 -14 -30 -67 -48
-77 -49 -26 -109 -15 -136 26 -8 13 -28 59 -44 102 l-29 77 -188 3 -189 2 -29
-81 c-38 -107 -69 -143 -126 -142 -31 1 -49 8 -71 29 -16 15 -29 36 -29 46 0
16 88 277 125 368 7 19 41 112 75 205 129 353 160 425 192 445 33 20 69 18
106 -6z m950 7 c88 -27 161 -91 208 -182 42 -84 38 -163 -11 -209 -20 -19 -32
-22 -65 -17 -55 7 -77 29 -97 96 -17 61 -55 106 -98 117 -38 9 -96 -10 -128
-44 l-27 -28 -2 -261 c-1 -240 0 -263 18 -293 40 -69 118 -94 176 -56 27 18
68 92 68 124 0 29 28 60 65 72 43 14 66 7 104 -30 25 -25 28 -36 26 -75 -12
-169 -138 -299 -300 -309 -140 -8 -245 50 -324 180 l-31 51 -1 289 c-1 303 2
346 32 406 37 73 152 164 221 175 18 3 34 6 36 8 6 6 98 -4 130 -14z m957 -15
c71 -32 129 -92 167 -173 27 -56 29 -70 24 -130 -10 -122 -27 -158 -116 -243
l-57 -55 78 -159 c43 -88 83 -181 90 -208 11 -48 10 -51 -16 -78 -31 -33 -64
-41 -110 -29 -28 8 -40 23 -95 127 -146 274 -166 307 -188 310 -27 4 -30 -15
-35 -208 -5 -166 -17 -211 -63 -227 -42 -14 -85 -5 -115 23 l-27 25 2 487 c1
268 5 498 9 511 14 49 51 57 253 55 130 -1 146 -3 199 -28z m897 7 c63 -22
136 -88 173 -154 l30 -54 2 -310 c2 -209 -1 -322 -9 -347 -25 -81 -131 -187
-208 -208 -43 -12 -139 -14 -185 -5 -55 11 -117 49 -163 100 -80 89 -83 106
-86 477 -1 259 -1 264 23 313 85 176 251 250 423 188z m928 12 c139 -18 291
-168 307 -304 5 -46 3 -52 -25 -80 -22 -22 -40 -31 -64 -31 -48 0 -77 25 -105
89 -34 76 -65 107 -125 122 -97 23 -200 -12 -232 -78 -16 -33 -16 -37 1 -72
12 -25 32 -43 63 -58 42 -21 63 -25 167 -38 52 -6 128 -31 162 -53 43 -28 110
-104 133 -152 14 -31 21 -66 22 -110 0 -55 -4 -74 -33 -127 -41 -77 -86 -122
-159 -161 -203 -107 -442 -28 -534 177 -42 90 -41 135 0 172 37 33 76 37 112
12 33 -22 38 -31 51 -79 20 -78 89 -125 184 -126 122 -1 209 84 169 164 -22
43 -73 67 -179 83 -120 18 -158 30 -212 67 -143 97 -192 244 -126 375 44 87
131 163 223 196 70 25 91 26 200 12z"/>
<path d="M1882 5132 c-23 -64 -42 -120 -42 -124 0 -10 210 -10 210 -1 0 4 -21
60 -46 125 -33 85 -50 118 -62 118 -13 0 -29 -32 -60 -118z"/>
<path d="M3650 5356 l0 -137 58 6 c104 12 130 23 163 68 24 33 30 49 25 76
-12 77 -61 110 -173 118 l-73 5 0 -136z"/>
<path d="M4629 5469 c-60 -30 -64 -51 -64 -339 0 -279 4 -303 55 -333 34 -20
87 -25 115 -9 11 5 33 24 49 40 l28 31 -1 238 c-1 131 -4 256 -7 278 -11 86
-99 133 -175 94z"/>
<path d="M2969 4116 c-2 -2 -28 -7 -58 -10 -29 -4 -56 -8 -60 -10 -3 -2 -22
-7 -42 -10 -20 -3 -85 -21 -145 -41 -451 -148 -830 -476 -1029 -893 -61 -126
-110 -259 -129 -352 -9 -41 -19 -88 -22 -105 -4 -16 -8 -133 -9 -260 -4 -296
15 -433 89 -624 139 -360 354 -634 656 -836 398 -265 872 -358 1325 -258 17 4
35 8 40 9 61 12 194 56 275 91 386 166 705 474 882 849 47 102 111 293 133
399 39 190 38 497 -2 680 -75 346 -230 631 -473 875 -166 165 -331 278 -541
368 -98 41 -271 95 -344 106 -22 4 -56 9 -75 12 -42 6 -465 15 -471 10z m1367
-735 c48 -13 109 -59 154 -116 49 -61 61 -98 64 -200 3 -101 -23 -145 -195
-315 -95 -94 -342 -328 -530 -502 -20 -18 -85 -78 -144 -133 -59 -55 -122
-113 -139 -129 -44 -40 -255 -237 -281 -261 -11 -11 -45 -42 -76 -70 -30 -27
-104 -96 -164 -151 -173 -160 -237 -211 -285 -227 -60 -21 -193 -17 -239 7
-48 25 -183 147 -361 326 -273 273 -294 305 -294 430 1 218 194 365 412 314
66 -15 97 -39 245 -184 65 -63 124 -116 130 -117 7 -2 39 22 72 53 147 138
294 275 341 317 27 26 68 63 90 84 22 21 94 88 159 148 66 61 151 140 190 176
276 258 523 478 590 526 17 12 46 26 65 31 43 11 141 8 196 -7z"/>
<path d="M4199 3190 c-24 -7 -46 -23 -119 -90 -15 -14 -67 -61 -115 -105 -109
-99 -116 -105 -255 -235 -62 -58 -121 -112 -130 -120 -10 -8 -68 -62 -130
-120 -127 -118 -126 -117 -276 -256 -60 -56 -122 -113 -139 -128 -16 -15 -81
-76 -144 -134 -173 -162 -173 -162 -218 -183 -30 -14 -48 -17 -65 -10 -12 5
-92 75 -176 157 -171 165 -215 201 -252 204 -47 4 -59 0 -94 -31 -46 -40 -56
-88 -30 -137 27 -50 485 -505 529 -526 66 -32 98 -14 290 165 33 31 74 69 90
84 34 30 220 202 340 315 70 65 237 220 345 320 19 18 88 82 154 144 65 61
135 126 155 145 168 157 357 341 374 365 24 34 28 72 11 106 -29 59 -88 87
-145 70z"/>
</g>
</svg>
